<svg baseProfile="basic" xmlns="http://www.w3.org/2000/svg" width="180.31738" height="342.66504"><path fill="#834D20" d="M40.69336 81.58545S25.50098 62.5952 17.21484 70.88184c-8.2871 8.28662-.51855 22.73681 15.19141 44.16894 15.70996 21.43262 24.6875-5.32617 24.6875-5.32617l-16.4004-28.13916z"/><path fill="#834D20" d="M47.82031 119.09375L0 146.19825s15.333 21.70898 42.46875 6.04198 19.68066-33.14648 19.68066-33.14648h-14.3291z"/><path fill="#D69E6C" d="M3.90625 150.33691c8.17969-3.5371 25.91504-12.11328 20.21777-17.81152L0 146.19824s1.33887 1.8838 3.90625 4.13867z"/><path fill="#834D20" d="M67.96973 302.417c13.33105 7.69726 20.84082 23.61718 25.04199 40.24804h59.10156c-2.85156-46.92383-8.0332-127.25586-8.0332-127.25586l4.6836-51.27344-40.9209-6.21484-32.03028 18.49219-46.0664 2.43554s3.75292 103.667 38.22363 123.56836z"/><path fill="#834D20" d="M62.4043 182.76367l-32.6582 9.81055c-6.5254 1.95996-11.56446 7.167-13.30958 13.75293L8.54102 236.125s23.65136 1.03613 37.11718-29.00293c13.46582-30.03809 16.7461-24.3584 16.7461-24.3584z"/><path fill="#834D20" d="M58.4746 152.37988l-32.6582 9.80957c-6.5244 1.96094-11.56445 7.16797-13.30859 13.7539l-7.8955 29.79786s23.65136 1.03613 37.1162-29.00293c13.46583-30.03906 16.7461-24.3584 16.7461-24.3584z"/><path fill="#D69E6C" d="M16.3086 182.33594s2.55566-8.20606-3.08497-8.55469c-.27636.70215-.5205 1.42188-.71582 2.1621l-7.8955 29.79786s2.38183.10059 6.05859-.71484l5.6377-22.69043z"/><path opacity=".1" fill="#010101" d="M107.84277 157.9209L75.8125 176.41309l-46.0664 2.43554s1.58593 43.70801 12.13378 79.8125H144.7754c.70215 0 1.38867-.0664 2.06445-.16113-1.56054-24.50586-2.75976-43.09082-2.75976-43.09082l4.6836-51.27344-40.9209-6.21484z"/><path fill="#414141" d="M144.7754 246.73633H38.91308c-8.16797 0-14.78907-6.62207-14.78907-14.79004V14.78955C24.12402 6.62158 30.74512 0 38.9131 0h105.8623c8.16797 0 14.78906 6.62158 14.78906 14.78955V231.9463c0 8.16797-6.6211 14.79004-14.78906 14.79004z"/><path fill="#DBEFEC" d="M144.7754 5.1792h-27.9375c0 4.16504-3.37696 7.542-7.542 7.542H74.39258c-4.16504 0-7.54102-3.37696-7.54102-7.542H38.9131c-5.30762 0-9.61036 4.30273-9.61036 9.61035V231.9463c0 5.30762 4.30274 9.61035 9.61036 9.61035h105.8623c5.30762 0 9.61035-4.30273 9.61035-9.61035V14.78955c0-5.30762-4.30273-9.61035-9.61035-9.61035z"/><path fill="#FFF" d="M35.47266 40.18701h113.2002v101.24463H35.47266zM35.47266 178.84863h113.2002v50.84473H35.47266zM145.18555 155.43945H38.95996c-1.92578 0-3.4873-1.56054-3.4873-3.4873 0-1.92578 1.56152-3.4873 3.4873-3.4873h106.22559c1.92578 0 3.4873 1.56152 3.4873 3.4873 0 1.92676-1.56152 3.4873-3.4873 3.4873zM145.18555 169.35156H38.95996c-1.92578 0-3.4873-1.56152-3.4873-3.48828 0-1.92578 1.56152-3.4873 3.4873-3.4873h106.22559c1.92578 0 3.4873 1.56152 3.4873 3.4873 0 1.92676-1.56152 3.48828-3.4873 3.48828z"/><path fill="#00AD88" d="M144.7754 5.1792h-27.9375c0 4.16504-3.37696 7.542-7.542 7.542H74.39258c-4.16504 0-7.54102-3.37696-7.54102-7.542h-27.9375c-5.3086 0-9.61133 4.30273-9.61133 9.61035v19.2046h125.08301v-19.2046c0-5.30762-4.30273-9.61035-9.61035-9.61035z"/><path opacity=".1" fill="#010101" d="M159.56445 231.94629V128.26855c-7.96289 2.1338-18.63672 10.6836-22.1621 40.1338-5.14454 42.97265-22.22462 60.48242-32.875 78.33398h40.24804c8.16797 0 14.78906-6.62207 14.78906-14.79004z"/><path fill="#D69E6C" d="M20.71094 211.52441l-5.22168-1.62109L8.54102 236.125s2.06933.08398 5.31836-.56055c7.46289-8.20996 6.85156-24.04004 6.85156-24.04004z"/><path fill="#B57D4F" d="M125.39648 342.66504h48.39942l-8.45899-52.67774s18.12598-33.40527 14.50098-61.63085-7.58691-34.18165.4795-104.3584c0 0-25.68458-8.89063-31.55372 40.1377-5.87012 49.02831-27.27637 64.91112-36.94433 85.97265s.50097 46.6123 7.15625 67.67383c2.26757 7.17773 4.4834 16.15918 6.4209 24.8828z"/><path fill="#B57D4F" d="M91.22754 342.66504h55.67969l-2.82715-13.1709-7.4004-36.5-24.86034-42.88574s-32.05176 31.39746-22.9834 79.38574c.87988 4.65625 1.67285 9.03906 2.3916 13.1709z"/><path fill="#D69E6C" d="M172.13184 123.72168l-3.42872 30.05566s2.7002 4.14356 8.21192 4.14356c.75-9.35059 1.85351-20.4502 3.40234-33.92285 0 0-3.48828-1.2041-8.18554-.27637z"/><g fill="#FFF"><path d="M36.42969 10.45215h1.33398v2.09961h-1.33398zM39.38867 9.37598h1.33301v3.17578h-1.33301zM42.34668 8.17188h1.33301v4.37988h-1.33301zM45.30469 6.86914h1.33398v5.68262h-1.33398z"/></g></svg>