<svg width="60" height="60" viewBox="0 0 60 60" fill="none" xmlns="http://www.w3.org/2000/svg">
<path d="M57.5154 30.0495C55.8671 27.1944 52.0137 23.1629 48.1449 20.2457C45.1382 17.9786 41.153 15.6474 37.8386 16.0191C38.3566 14.8998 38.6299 13.6721 38.6299 12.4052C38.6299 8.87899 36.4986 5.84257 33.4574 4.51222L34.6806 3.289C35.3533 2.61635 35.3533 1.52587 34.6806 0.853228C34.0081 0.180587 32.9175 0.180587 32.2448 0.853228L30.0179 3.08002L27.791 0.853113C27.1185 0.180473 26.0279 0.180473 25.3553 0.853113C24.6826 1.52575 24.6826 2.61624 25.3553 3.28888L26.5785 4.5121C23.5374 5.84257 21.4061 8.87899 21.4061 12.4052C21.4061 13.6887 21.6871 14.9317 22.2183 16.0629C18.8438 15.4978 14.6988 17.9061 11.596 20.2458C7.72711 23.163 3.87383 27.1945 2.22542 30.0495C-1.09794 35.8056 0.964762 43.177 6.75328 46.5191C10.9563 48.9457 15.9347 48.5338 19.5966 46.0303C21.4392 49.1991 24.6399 51.3713 28.2956 51.8957V57.4162C28.2956 58.3674 29.0667 59.1386 30.0179 59.1386C30.9691 59.1386 31.7403 58.3674 31.7403 57.4162V51.893C35.3245 51.3716 38.5016 49.249 40.3597 46.1602C44.0405 48.5505 48.9741 48.9026 53.1023 46.519C58.8734 43.1871 60.8475 35.8209 57.5154 30.0495ZM30.0179 7.23803C32.8671 7.23803 35.185 9.55599 35.185 12.4051C35.185 13.3535 34.9293 14.2647 34.4522 15.0591C33.002 14.4464 31.5045 14.1275 30.0179 14.1275C28.5271 14.1275 27.0314 14.4439 25.5824 15.057C25.1061 14.2631 24.8509 13.3525 24.8509 12.4051C24.8509 9.5561 27.1688 7.23803 30.0179 7.23803ZM27.3128 24.4502H32.4281C32.3924 25.6015 32.4451 26.7834 32.5491 27.9064H27.1917C27.2957 26.7834 27.3484 25.6016 27.3128 24.4502ZM33.0255 31.3511C33.2344 32.5074 33.4905 33.6689 33.7815 34.7959H25.9591C26.2502 33.6689 26.5064 32.5074 26.7151 31.3511H33.0255ZM32.8699 21.0171H26.8708C26.6578 20.1734 26.359 19.3905 25.9545 18.7028C27.2857 17.953 28.6466 17.5723 30.0179 17.5723C31.3093 17.5723 32.5956 17.9118 33.8578 18.5812C33.4163 19.2971 33.0956 20.1236 32.8699 21.0171ZM24.9201 38.2406H34.8207C35.2801 39.552 35.7773 40.7298 36.286 41.6853H23.4548C23.9635 40.7298 24.4607 39.552 24.9201 38.2406ZM20.2396 40.3837C17.8779 44.4743 12.6276 45.9328 8.47565 43.5358C4.33795 41.1469 2.83697 35.8797 5.20867 31.7718C6.39618 29.7151 9.76524 25.9404 13.67 22.9962C15.5874 21.5504 20.1929 18.4799 22.2546 19.6701C24.2998 20.8509 23.9391 26.3389 23.6384 28.7118C23.0284 33.5259 21.432 38.3187 20.2396 40.3837ZM30.0179 48.5748C27.25 48.5748 24.7185 47.2473 23.1233 45.1186H36.9068C35.3055 47.2435 32.7636 48.5748 30.0179 48.5748ZM51.3799 43.5357C47.5311 45.7577 42.7641 44.5928 40.352 41.5881C38.0058 38.6656 36.5474 32.2247 36.1021 28.7115C35.7522 25.9493 35.3875 19.8335 38.1702 19.451C38.299 19.4334 39.3879 19.4984 39.5484 19.5312C41.0647 19.8417 43.2375 20.8598 46.0708 22.9961C49.9756 25.9404 53.3446 29.715 54.532 31.7717C56.9119 35.8939 55.5023 41.1557 51.3799 43.5357Z" fill="#5F5F5F"/>
</svg>

